<?xml version="1.0" standalone="no"?>
<!DOCTYPE svg PUBLIC "-//W3C//DTD SVG 20010904//EN"
 "http://www.w3.org/TR/2001/REC-SVG-20010904/DTD/svg10.dtd">
<svg version="1.0" xmlns="http://www.w3.org/2000/svg"
 width="160.000000pt" height="160.000000pt" viewBox="0 0 160.000000 160.000000"
 preserveAspectRatio="xMidYMid meet">

<g transform="translate(0.000000,160.000000) scale(0.100000,-0.100000)"
fill="#000000" stroke="none">
<path d="M770 1505 c-162 -34 -286  -100 -401 -214 -139 -139 -208 -294 -216
-486 -4 -90 -1 -126 16 -199 56 -236 222 -418 447 -492 75 -24 105 -29 194
-29 187 0 318 51 434 169 118 119 176 261 176 426 0 148 -46 265 -140 360
-161 160 -423 198 -612 87 -143 -84 -229 -268 -206 -439 31 -234 284 -381 495
-288 57 25 127 90 155 145 29 55 35 153 14 209 -19 50 -78 108 -132 131 -48
20 -127 19 -170 -1 -92 -44 -113 -175 -32 -203 39 -14 73 1 93 39 20 38 39 38
77 0 25 -26 29 -36 24 -63 -14 -73 -82 -127 -160 -127 -218 1 -293 271 -120
429 70 64 137 86 236 78 117 -10 220 -71 274 -163 135 -230 -4 -549 -271 -620
-111 -30 -266 -12 -369 44 -76 40 -176 145 -214 224 -33 68 -62 189 -62 256 0
69 29 177 69 257 86 175 265 299 473 329 47 7 88 40 88 72 0 26 -23 62 -47 73
-28 13 -29 13 -113 -4z"/>
</g>
</svg>
