<?xml version="1.0" standalone="no"?>
<!DOCTYPE svg PUBLIC "-//W3C//DTD SVG 20010904//EN"
 "http://www.w3.org/TR/2001/REC-SVG-20010904/DTD/svg10.dtd">
<svg version="1.0" xmlns="http://www.w3.org/2000/svg"
 width="160.000000pt" height="160.000000pt" viewBox="0 0 160.000000 160.000000"
 preserveAspectRatio="xMidYMid meet">

<g transform="translate(0.000000,160.000000) scale(0.100000,-0.100000)"
fill="#000000" stroke="none">
<path d="M767 1468 c9 -176 -12 -225 -98 -237 -39 -6 -41 -8 -70 -76 -53 -125
-70 -186 -79 -287 -7 -83 -12 -104 -31 -124 -61 -65 -149 13 -149 131 0 25 -4
45 -9 45 -15 0 -71 -98 -98 -170 -63 -166 -34 -297 99 -458 37 -45 49 -82 28
-82 -6 0 -29 9 -51 21 -23 11 -40 16 -38 11 8 -19 120 -109 171 -137 l53 -28
-24 26 c-19 21 -24 39 -26 84 -2 44 -10 72 -34 114 -36 64 -71 193 -71 261 0
31 -9 63 -26 95 -22 42 -25 56 -19 106 3 32 10 68 14 80 7 17 9 14 14 -19 9
-57 45 -105 97 -131 56 -28 73 -28 126 -2 50 24 52 30 59 179 7 130 39 276 65
293 13 8 16 15 9 23 -7 9 2 10 35 7 42 -5 46 -4 65 28 12 19 21 40 21 48 0 8
9 34 21 57 l20 43 -25 74 c-36 102 -33 124 7 61 17 -29 69 -91 114 -139 46
-48 96 -111 112 -139 37 -63 60 -144 45 -154 -6 -4 -13 -15 -17 -24 -4 -12
-12 -15 -23 -11 -14 5 -16 3 -11 -11 4 -10 7 -58 7 -107 0 -69 3 -89 14 -89 7
0 25 -15 40 -34 22 -30 25 -38 15 -60 -7 -14 -9 -40 -5 -60 6 -29 12 -36 29
-36 13 0 32 7 43 15 12 8 24 11 28 8 11 -11 6 -89 -9 -139 -22 -72 -19 -101
10 -120 20 -13 28 -14 40 -4 33 27 14 -35 -37 -120 -14 -25 -30 -66 -33 -93
-5 -32 -14 -52 -28 -62 -42 -29 0 -14 59 21 72 43 87 56 59 54 -63 -7 -60 5
26 104 99 112 123 167 123 276 -1 93 -30 222 -69 299 l-22 44 -12 -46 c-15
-63 -62 -86 -107 -53 -17 13 -19 28 -19 173 0 152 -1 160 -27 214 -15 30 -52
82 -82 115 -50 55 -228 203 -297 247 l-29 19 7 -124z m564 -655 c-12 -20 -14
-14 -5 12 4 9 9 14 11 11 3 -2 0 -13 -6 -23z m-946 -633 c3 -6 -1 -7 -9 -4
-18 7 -21 14 -7 14 6 0 13 -4 16 -10z"/>
<path d="M370 1210 c0 -9 -19 -38 -41 -65 -50 -60 -59 -82 -59 -143 l0 -46 36
35 c58 55 99 174 75 216 -8 14 -10 15 -11 3z m-9 -113 c-6 -17 -27 -50 -46
-72 l-35 -40 6 40 c8 50 19 72 53 108 30 33 40 18 22 -36z"/>
<path d="M396 569 c21 -23 63 -27 45 -5 -6 8 -23 16 -37 19 -24 4 -24 3 -8
-14z"/>
</g>
</svg>
