<?xml version="1.0" standalone="no"?>
<!DOCTYPE svg PUBLIC "-//W3C//DTD SVG 20010904//EN"
 "http://www.w3.org/TR/2001/REC-SVG-20010904/DTD/svg10.dtd">
<svg version="1.0" xmlns="http://www.w3.org/2000/svg"
 width="160.000000pt" height="160.000000pt" viewBox="0 0 160.000000 160.000000"
 preserveAspectRatio="xMidYMid meet">

<g transform="translate(0.000000,160.000000) scale(0.100000,-0.100000)"
fill="#000000" stroke="none">
<path d="M987 1496 c-52 -19 -73 -40 -93 -92 -44 -114 13 -226 230 -459 l74
-80 88 93 c126 135 161 180 195 247 40 82 47 148 21 208 -48 108 -169 123
-260 32 l-44 -44 -30 35 c-54 61 -118 82 -181 60z m108 -32 c29 -14 64 -50 88
-90 4 -7 -9 -11 -36 -12 -119 -4 -211 -33 -220 -69 -2 -11 -7 -4 -11 19 -12
55 11 117 53 145 40 27 80 29 126 7z m324 2 c53 -28 84 -112 62 -166 -7 -17
-10 -20 -10 -8 -1 29 -42 47 -136 59 -50 6 -98 12 -107 12 -16 1 -16 3 0 31
41 71 128 104 191 72z"/>
<path d="M192 1014 c-53 -26 -84 -59 -118 -124 -14 -26 -18 -55 -17 -115 1
-133 51 -240 188 -405 86 -102 305 -332 314 -328 16 8 280 292 337 362 173
217 211 418 102 550 -59 72 -172 104 -259 75 -50 -17 -122 -73 -153 -118 l-28
-40 -32 42 c-91 120 -219 158 -334 101z m214 -49 c41 -24 99 -86 122 -130 9
-18 7 -20 -26 -20 -78 -1 -212 -16 -256 -29 -43 -13 -111 -56 -127 -79 -14
-20 -20 75 -9 129 21 100 112 168 209 158 24 -2 64 -15 87 -29z m479 16 c80
-36 126 -114 124 -211 0 -44 -17 -105 -18 -68 -1 28 -58 66 -113 76 -63 12
-242 35 -280 36 -23 1 -25 3 -15 21 20 39 70 94 107 120 68 47 130 56 195 26z"/>
</g>
</svg>
